<svg width="32" height="32" viewBox="0 0 32 32" fill="none" xmlns="http://www.w3.org/2000/svg">
<path d="M32 12.5V19.5C32 20.33 31.33 21 30.5 21H21V30.5C21 31.33 20.33 32 19.5 32H12.5C12.1 32 11.72 31.85 11.44 31.56C11.16 31.28 11 30.9 11 30.5L11.01 21.01H1.5C0.68 21.01 0 20.34 0 19.51V12.5C0 12.1 0.16 11.72 0.44 11.44C0.73 11.16 1.11 11 1.5 11H11.01V1.51C11.01 0.68 11.68 0.00999999 12.51 0.00999999L19.5 0C19.9 0 20.28 0.16 20.57 0.44C20.85 0.72 21 1.11 21 1.5V11.01L30.5 11C30.9 11 31.28 11.16 31.57 11.44C31.85 11.72 32 12.1 32 12.5Z" fill="currentColor"/>
</svg>
