<svg width="86" height="126" viewBox="0 0 86 126" fill="none" xmlns="http://www.w3.org/2000/svg">
<path d="M85.9979 108.879C86.0214 107.218 85.8454 105.539 85.5094 103.803C83.9507 98.7356 81.4942 94.0887 77.2659 90.8397C73.9446 88.2874 69.6377 87.1607 64.87 86.6815C61.2099 79.4576 57.5307 72.2622 53.8787 65.0345L70.1213 14.7695C70.4782 13.6072 70.4559 12.3112 70.0607 11.1616L68.1677 5.53586C65.4675 0.103596 60.3482 -1.45629 57.1152 5.16895L43.0093 39.5963L35.9259 22.3826L28.8425 5.16895C25.6095 -1.45629 20.5514 0.103594 17.851 5.53586L15.9582 11.1616C15.5626 12.3112 15.5403 13.6072 15.8976 14.7695L32.1407 65.0957C28.4963 72.3069 24.8009 79.4739 21.1492 86.6815C16.3813 87.1607 12.0134 88.2874 8.69224 90.8397C4.46378 94.0887 2.06856 98.7356 0.509616 103.803C-0.384002 108.431 -0.281451 112.721 2.28057 117.134C4.83887 120.824 10.3633 123.762 14.9206 125.389C18.4147 126.416 21.6776 126.065 24.7519 124.961C27.8031 123.832 30.5405 121.295 32.0797 118.051L43.0099 88.6995L53.9406 118.051C55.4798 121.295 58.217 123.832 61.2682 124.961C64.3425 126.065 67.6053 126.416 71.0993 125.389C75.6567 123.762 81.1205 120.824 83.6786 117.134C85.2797 114.376 85.9598 111.647 85.9979 108.879ZM74.2738 108.084C74.3969 110.699 72.8486 112.253 70.6709 113.221C68.6763 114.27 65.6247 114.662 64.6257 113.221C60.9926 106.585 59.5601 100.405 64.2592 98.0554C69.5826 97.308 72.7303 102.746 74.0906 106.922C74.1786 107.341 74.2562 107.71 74.2738 108.084ZM24.7509 103.07C24.8076 105.92 23.4361 109.488 21.3926 113.221C20.3934 114.662 17.2808 114.27 15.2862 113.221C12.7975 112.115 11.1663 110.275 11.8666 106.922C13.227 102.746 16.4355 97.308 21.7587 98.0554C23.8147 99.0835 24.7067 100.852 24.7509 103.07Z" fill="black"/>
</svg>
