<svg width="32" height="32" viewBox="0 0 32 32" fill="none" xmlns="http://www.w3.org/2000/svg">
<path fill-rule="evenodd" clip-rule="evenodd" d="M28.5712 12.5715H3.4282V25.7908C3.42819 29.2207 6.20757 32 9.6374 32H22.3617C25.7916 32 28.5709 29.2206 28.5709 25.7908L28.5712 12.5715ZM19.4283 16.0001V28.5715C19.4283 29.2024 19.9402 29.7144 20.5711 29.7144C21.202 29.7144 21.714 29.2024 21.714 28.5715V16.0001C21.714 15.3692 21.202 14.8572 20.5711 14.8572C19.9402 14.8572 19.4283 15.3692 19.4283 16.0001ZM10.2854 16.0001V28.5715C10.2854 29.2024 10.7974 29.7144 11.4282 29.7144C12.0591 29.7144 12.5711 29.2024 12.5711 28.5715V16.0001C12.5711 15.3692 12.0591 14.8572 11.4282 14.8572C10.7974 14.8572 10.2854 15.3692 10.2854 16.0001ZM14.8568 16.0001V28.5715C14.8568 29.2024 15.3688 29.7144 15.9997 29.7144C16.6305 29.7144 17.1425 29.2024 17.1425 28.5715V16.0001C17.1425 15.3692 16.6305 14.8572 15.9997 14.8572C15.3688 14.8572 14.8568 15.3692 14.8568 16.0001ZM2.28533 10.2858H29.714C30.9757 10.2858 31.9997 9.26175 31.9997 8.00003V5.71431C31.9997 4.45259 30.9757 3.42859 29.714 3.42859H22.7132C22.2055 1.45712 20.416 0 18.2856 0H13.7141C11.5838 0 9.79426 1.45712 9.28657 3.42859H2.28572C1.024 3.42859 0 4.45259 0 5.71431V8.00003C0 9.26175 1.024 10.2858 2.28572 10.2858H2.28533Z" fill="currentColor"/>
</svg>
