<svg width="106" height="135" viewBox="0 0 106 135" fill="none" xmlns="http://www.w3.org/2000/svg">
<path d="M101.995 13H87.7899C86.0852 13 84.6646 14.4205 84.6646 16.1252V18.3981C84.6646 24.3644 79.8348 29.1942 73.8685 29.1942H32.6726C26.7063 29.1942 21.8764 24.3644 21.8764 18.3981V16.1252C21.8764 14.4205 20.4559 13 18.7512 13H4.54575C1.98877 13 0 14.9888 0 17.2616V130.053C0 132.326 1.98877 134.315 4.26164 134.315H101.711C103.984 134.315 105.973 132.326 105.973 130.053V17.2616C106.257 14.9888 104.268 13 101.995 13Z" fill="black"/>
<path d="M65.3452 4.82986C64.4929 4.82986 63.9247 4.54575 63.3565 3.69342C61.9359 1.70466 57.6743 0 52.8444 0C48.0146 0 44.037 1.42055 42.3324 3.69342C41.7641 4.26164 41.1959 4.82986 40.3436 4.82986H32.1044C30.6839 4.82986 29.8315 5.9663 29.8315 7.10274V17.6148C29.8315 19.0353 30.968 19.8877 32.1044 19.8877H73.3003C74.7209 19.8877 75.5732 18.7512 75.5732 17.6148V7.38685C75.5732 5.9663 74.4367 5.11397 73.3003 5.11397H65.3452V4.82986Z" fill="black"/>
</svg>
