<svg width="32" height="32" viewBox="0 0 32 32" fill="none" xmlns="http://www.w3.org/2000/svg">
<path fill-rule="evenodd" clip-rule="evenodd" d="M28.5712 12.5715H3.4282V25.7908C3.42819 29.2207 6.20757 32 9.63739 32H22.3617C25.7916 32 28.5709 29.2206 28.5709 25.7908L28.5712 12.5715ZM10 18C10 16.8954 10.8954 16 12 16C13.1046 16 14 16.8954 14 18V26C14 27.1046 13.1046 28 12 28C10.8954 28 10 27.1046 10 26V18ZM20 16C18.8954 16 18 16.8954 18 18V26C18 27.1046 18.8954 28 20 28C21.1046 28 22 27.1046 22 26V18C22 16.8954 21.1046 16 20 16Z" fill="currentColor"/>
<path d="M2.28533 10.2858H29.714C30.9757 10.2858 31.9997 9.26175 31.9997 8.00003V5.71431C31.9997 4.45259 30.9757 3.42859 29.714 3.42859H22.7132C22.2055 1.45712 20.416 0 18.2856 0H13.7141C11.5838 0 9.79426 1.45712 9.28657 3.42859H2.28572C1.024 3.42859 0 4.45259 0 5.71431V8.00003C0 9.26175 1.02361 10.2858 2.28533 10.2858Z" fill="black"/>
</svg>
