<svg width="113" height="128" viewBox="0 0 113 128" fill="none" xmlns="http://www.w3.org/2000/svg">
<path d="M92.7029 0.0120634C87.0562 0.209611 81.5404 2.82487 77.8271 7.66014C74.7159 11.7114 73.6481 16.4753 74.073 21.2202H74.0261C75.1546 27.0161 75.464 33.4205 71.9144 38.2055C68.704 42.5333 63.1496 43.7652 57.9302 44.446C53.7872 45.025 49.7556 47.2429 46.7616 50.6395L75.4338 72.6923C77.9428 68.9232 79.0875 64.4104 78.5779 60.2582C77.889 55.0399 77.6184 49.3682 80.9712 45.1498C84.6782 40.4857 90.9418 39.1737 96.8325 38.7685V38.7217C101.526 37.908 105.828 35.641 108.94 31.5898C115.541 22.9937 113.922 10.649 105.326 4.04733C101.566 1.15912 97.0948 -0.141581 92.7029 0.0120634ZM27.4746 39.0032L12.0826 59.0853L15.4614 61.6658L72.8529 105.724C72.8857 105.754 72.9171 105.785 72.9467 105.817L73.0406 105.911C73.0734 105.94 73.1048 105.971 73.1344 106.004L76.2785 108.397L91.6705 88.3145L75.1054 75.5991C75.0734 75.5849 75.0421 75.5693 75.0115 75.5525L44.1337 51.8108C44.1176 51.7956 44.102 51.7799 44.0868 51.7638L43.9929 51.67L27.4747 39.0014L27.4746 39.0032ZM14.9452 64.4811L8 73.4899L63.3737 116L70.2719 106.991L42.5851 85.7362L14.9452 64.4811Z" fill="black"/>
<ellipse cx="32.5" cy="122" rx="32.5" ry="6" fill="black"/>
</svg>
